<svg viewBox="0 0 140 140" fill="none" xmlns="http://www.w3.org/2000/svg"><circle cx="70" cy="70" r="68.5" stroke="#E5E5E5" stroke-opacity=".56" stroke-width="3"/><path d="M25.104 44.904h8.466V88h-4.277V49.123h-6.768l2.579-4.219zm45.234 19.453c2.91 1.446 4.99 3.096 6.24 4.952 1.27 1.855 1.904 3.964 1.904 6.328 0 3.32-1.084 6.25-3.251 8.789-2.657 3.105-6.456 4.658-11.397 4.658-4.766 0-8.379-1.357-10.84-4.072-2.46-2.735-3.691-5.743-3.691-9.024 0-2.402.644-4.56 1.933-6.474 1.29-1.934 3.438-3.653 6.446-5.157-2.11-1.093-3.692-2.45-4.747-4.072-1.054-1.62-1.582-3.36-1.582-5.215 0-1.875.557-3.7 1.67-5.478 1.133-1.797 2.686-3.203 4.659-4.219 1.992-1.035 4.14-1.553 6.445-1.553 2.246 0 4.326.518 6.24 1.553 1.914 1.035 3.408 2.442 4.483 4.219 1.093 1.777 1.64 3.642 1.64 5.596 0 1.953-.517 3.69-1.552 5.214-1.016 1.524-2.55 2.842-4.6 3.955zM63.922 48.01c-2.363 0-4.326.703-5.889 2.11-1.543 1.386-2.314 3.046-2.314 4.98 0 1.914.83 3.652 2.49 5.215 1.68 1.542 3.633 2.314 5.86 2.314a8.22 8.22 0 004.042-1.055c1.27-.703 2.256-1.66 2.96-2.87.722-1.231 1.083-2.462 1.083-3.692 0-1.739-.703-3.34-2.11-4.805-1.405-1.465-3.446-2.197-6.122-2.197zm.205 18.515c-2.969 0-5.459.967-7.47 2.9-2.012 1.915-3.018 4.151-3.018 6.71 0 1.582.43 3.076 1.289 4.482.86 1.406 2.06 2.49 3.603 3.252 1.543.762 3.33 1.143 5.362 1.143 3.144 0 5.644-.928 7.5-2.784 1.855-1.855 2.783-4.023 2.783-6.503 0-2.403-.987-4.532-2.96-6.387-1.952-1.875-4.316-2.813-7.089-2.813zm32.607-2.08V51.731h4.014v12.714h12.832v4.014h-12.832v12.715h-4.014V68.459H83.932v-4.014h12.802z" fill="#fff" fill-opacity=".5"/></svg>